# Blender v2.78 (sub 0) OBJ File: ''
# www.blender.org
o Cube
v -0.515312 -0.907523 -0.907522
v -0.515312 -0.907523 0.907523
v -1.000000 -1.000000 1.000000
v -1.000000 -1.000000 -1.000000
v -0.515312 0.907523 -0.907522
v -0.515313 0.907523 0.907523
v -1.000000 1.000000 1.000000
v -1.000000 1.000000 -1.000000
v -0.589384 -1.000000 -1.000000
v -0.589384 -1.000000 1.000000
v -0.589384 1.000000 -0.999999
v -0.589385 1.000000 1.000001
v -0.589384 -1.000000 -1.000000
v -0.589384 -1.000000 -1.000000
v -0.589384 -1.000000 -1.000000
v -0.589384 -1.000000 1.000000
v -0.589384 -1.000000 1.000000
v -0.589384 -1.000000 1.000000
v -1.000000 -1.000000 -1.000000
v -1.000000 -1.000000 -1.000000
v -0.589384 1.000000 -0.999999
v -0.589384 1.000000 -0.999999
v -0.589384 1.000000 -0.999999
v -1.000000 -1.000000 1.000000
v -1.000000 -1.000000 1.000000
v -0.589385 1.000000 1.000001
v -0.589385 1.000000 1.000001
v -0.589385 1.000000 1.000001
v -1.000000 1.000000 1.000000
v -1.000000 1.000000 1.000000
v -1.000000 1.000000 -1.000000
v -1.000000 1.000000 -1.000000
v -0.515312 -0.907523 -0.907522
v -0.515312 -0.907523 -0.907522
v -0.515312 -0.907523 0.907523
v -0.515312 -0.907523 0.907523
v -0.515312 -0.907523 0.907523
v -0.515312 0.907523 -0.907522
v -0.515312 0.907523 -0.907522
v -0.515312 0.907523 -0.907522
v -0.515313 0.907523 0.907523
v -0.515313 0.907523 0.907523
vt 0.9999 0.9999
vt 0.0001 0.0001
vt 0.9999 0.0001
vt 0.9999 0.9999
vt 0.0001 0.9999
vt 0.0001 0.0001
vt 0.0000 0.0000
vt 0.0000 0.0000
vt 0.0000 0.0000
vt 0.0000 0.0000
vt 0.0000 0.0000
vt 0.0000 0.0000
vt 0.0000 0.0000
vt 0.0000 0.0000
vt 0.0000 0.0000
vt 0.0000 0.0000
vt 0.0000 0.0000
vt 0.0000 0.0000
vt 0.0000 0.0000
vt 0.0000 0.0000
vt 0.0000 0.0000
vt 0.0000 0.0000
vt 0.0000 0.0000
vt 0.0000 0.0000
vt 0.0000 0.0000
vt 0.0000 0.0000
vt 0.0000 0.0000
vt 0.0000 0.0000
vt 0.0000 0.0000
vt 0.0000 0.0000
vt 0.0000 0.0000
vt 0.0000 0.0000
vt 0.0000 0.0000
vt 0.0000 0.0000
vt 0.0000 0.0000
vt 0.0000 0.0000
vt 0.0000 0.0000
vt 0.0000 0.0000
vt 0.0000 0.0000
vt 0.0000 0.0000
vt 0.0000 0.0000
vt 0.0000 0.0000
vn 1.0000 0.0000 0.0000
vn 0.0000 -1.0000 0.0000
vn 0.0000 1.0000 0.0000
vn 0.0000 0.0000 1.0000
vn -1.0000 0.0000 0.0000
vn 0.0000 0.0000 -1.0000
vn 0.7805 -0.6251 0.0000
vn 0.7805 0.0000 -0.6251
vn 0.7805 0.0000 0.6251
vn 0.7805 0.6251 0.0000
f 5/1/1 2/2/1 1/3/1
f 40/4/1 6/5/1 37/6/1
f 14/7/2 17/8/2 24/9/2 19/10/2
f 21/11/3 32/12/3 30/13/3 26/14/3
f 16/15/4 27/16/4 29/17/4 25/18/4
f 3/19/5 7/20/5 31/21/5 20/22/5
f 22/23/6 13/24/6 4/25/6 8/26/6
f 33/27/7 35/28/7 18/29/7 15/30/7
f 38/31/8 34/32/8 9/33/8 23/34/8
f 36/35/9 41/36/9 28/37/9 10/38/9
f 42/39/10 39/40/10 11/41/10 12/42/10
